<?xml version="1.0" encoding="UTF-8" standalone="no"?>
<svg
   xmlns:dc="http://purl.org/dc/elements/1.1/"
   xmlns:cc="http://creativecommons.org/ns#"
   xmlns:rdf="http://www.w3.org/1999/02/22-rdf-syntax-ns#"
   xmlns:svg="http://www.w3.org/2000/svg"
   xmlns="http://www.w3.org/2000/svg"
   xmlns:sodipodi="http://sodipodi.sourceforge.net/DTD/sodipodi-0.dtd"
   xmlns:inkscape="http://www.inkscape.org/namespaces/inkscape"
   viewBox="0 -32 650.00001 650"
   version="1.1"
   id="svg897"
   sodipodi:docname="catstagram.svg"
   width="650"
   height="650"
   inkscape:version="0.92.2 5c3e80d, 2017-08-06">
  <metadata
     id="metadata903">
    <rdf:RDF>
      <cc:Work
         rdf:about="">
        <dc:format>image/svg+xml</dc:format>
        <dc:type
           rdf:resource="http://purl.org/dc/dcmitype/StillImage" />
        <dc:title></dc:title>
      </cc:Work>
    </rdf:RDF>
  </metadata>
  <defs
     id="defs901" />
  <sodipodi:namedview
     pagecolor="#ffffff"
     bordercolor="#666666"
     borderopacity="1"
     objecttolerance="10"
     gridtolerance="10"
     guidetolerance="10"
     inkscape:pageopacity="0"
     inkscape:pageshadow="2"
     inkscape:window-width="1440"
     inkscape:window-height="855"
     id="namedview899"
     showgrid="false"
     inkscape:snap-page="true"
     inkscape:snap-grids="true"
     showguides="true"
     inkscape:guide-bbox="true"
     inkscape:zoom="0.49384615"
     inkscape:cx="273.84358"
     inkscape:cy="366.57946"
     inkscape:window-x="0"
     inkscape:window-y="1"
     inkscape:window-maximized="1"
     inkscape:current-layer="layer5">
    <inkscape:grid
       type="xygrid"
       id="grid4696" />
  </sodipodi:namedview>
  <g
     inkscape:groupmode="layer"
     id="layer4"
     inkscape:label="background">
    <rect
       style="opacity:1;fill:#f6f1f1;fill-opacity:1;stroke:none;stroke-width:1.40216589;stroke-miterlimit:4;stroke-dasharray:none;stroke-opacity:1"
       id="rect4698"
       width="650"
       height="650"
       x="0"
       y="-32" />
  </g>
  <g
     inkscape:groupmode="layer"
     id="layer3"
     inkscape:label="circle">
    <circle
       style="opacity:1;fill:#ecc19a;fill-opacity:1;stroke:none;stroke-width:1.40199995;stroke-miterlimit:4;stroke-dasharray:none;stroke-opacity:1"
       id="path4691"
       cx="326.08725"
       cy="291.98755"
       r="255.14018" />
  </g>
  <g
     inkscape:groupmode="layer"
     id="layer5"
     inkscape:label="catpaw"
     style="opacity:0.75">
    <g
       inkscape:groupmode="layer"
       id="layer2"
       inkscape:label="hand"
       style="display:inline"
       sodipodi:insensitive="true">
      <path
         style="opacity:0.75;fill:#f6af43;fill-opacity:1;stroke:#000000;stroke-width:5;stroke-miterlimit:4;stroke-dasharray:none;stroke-opacity:1"
         d="m 227.17411,443.67214 c 0,0 0.23793,-126.85672 0.23793,-188.96923 0,-62.1125 42.94339,-112.46464 95.91675,-112.46464 52.97336,0 95.91675,50.35213 95.91675,112.46464 0,62.11251 0.81027,188.29813 0.81027,188.29813"
         id="path4687"
         inkscape:connector-curvature="0"
         sodipodi:nodetypes="csssc" />
    </g>
    <g
       inkscape:groupmode="layer"
       id="layer1"
       inkscape:label="paw"
       style="display:inline"
       sodipodi:insensitive="true">
      <g
         id="g4599"
         style="fill:#ff69b4;fill-opacity:1"
         transform="matrix(0.2514684,0,0,0.2514684,260.17726,184.39252)">
        <path
           id="path887"
           d="m 342.38281,239.35156 c -23.03906,-35.9414 -62.27734,-57.40234 -104.96484,-57.40234 -42.6836,0 -81.92578,21.46094 -104.96094,57.40234 l -55.515624,86.60547 c -9.210937,14.37109 -13.460937,30.96875 -12.292968,47.99609 1.167968,17.03125 7.648437,32.89063 18.738281,45.8711 11.097656,12.97656 25.761721,21.84375 42.406251,25.64844 16.64453,3.80078 33.70703,2.17968 49.33984,-4.69141 l 1.01953,-0.45313 c 39.33985,-16.95703 84.30469,-16.80468 123.54688,0.45313 10.12109,4.44922 20.84375,6.69922 31.66406,6.69922 5.88281,0 11.80078,-0.66797 17.66406,-2.00391 16.64453,-3.80078 31.3086,-12.66797 42.41016,-25.64453 11.09375,-12.97656 17.57812,-28.83984 18.75,-45.87109 1.17187,-17.03516 -3.07813,-33.63281 -12.28906,-48.00781 z m 26.2461,160.97266 c -14.1211,16.50781 -36.96485,21.72656 -56.84766,12.98437 -23.63281,-10.39453 -49,-15.58984 -74.375,-15.58984 -25.35156,0 -50.71484,5.19141 -74.33203,15.57422 l -0.67188,0.29687 c -19.73047,8.34375 -42.23828,3.0586 -56.20312,-13.26562 C 92.09375,383.8125 90.488281,360.4375 102.20703,342.15234 l 55.51953,-86.60547 c 17.49219,-27.28906 47.28125,-43.58203 79.69141,-43.58203 32.41015,0 62.20312,16.29297 79.69922,43.58203 l 55.51172,86.60157 c 11.72265,18.29297 10.11328,41.67187 -4,58.17578 z m 0,0"
           style="fill:#ff69b4;fill-opacity:1"
           inkscape:connector-curvature="0" />
        <path
           id="path889"
           d="m 91.894531,239.23828 c 16.515629,-6.34375 29.062499,-19.65234 35.332029,-37.47656 5.96094,-16.96094 5.47266,-36.10938 -1.38281,-53.92188 C 118.98438,130.03906 106.50781,115.50781 90.714844,106.91797 74.117188,97.898438 55.886719,96.429688 39.398438,102.78516 6.226562,115.53906 -8.996094,156.53125 5.46875,194.18359 c 11.554688,29.96875 38.503906,48.88672 65.75,48.88672 6.957031,0 13.933594,-1.23437 20.675781,-3.83203 z M 33.476562,183.40234 c -8.523437,-22.1875 -1.035156,-45.78906 16.703126,-52.60937 3.203124,-1.23438 6.589843,-1.84766 10.046874,-1.84766 5.335938,0 10.847657,1.45703 16.152344,4.34375 9.539063,5.1836 17.160156,14.1836 21.457032,25.33594 4.292972,11.16016 4.675782,22.94141 1.074218,33.17969 -3.300781,9.38281 -9.617187,16.28125 -17.78125,19.41797 l -0.01563,0.008 C 63.398433,218.05878 42.027339,205.5705 33.476557,183.40253 Z m 0,0"
           style="fill:#ff69b4;fill-opacity:1"
           inkscape:connector-curvature="0" />
        <path
           id="path891"
           d="m 199.61328,171.38672 c 41.46875,0 75.20703,-38.4375 75.20703,-85.683595 C 274.82031,38.445312 241.08203,0 199.61328,0 c -41.46484,0 -75.19922,38.445312 -75.19922,85.703125 0,47.246095 33.73438,85.683595 75.19922,85.683595 z m 0,-141.375001 c 24.91797,0 45.19531,24.984375 45.19531,55.691406 0,30.695315 -20.27734,55.671875 -45.19531,55.671875 -24.91797,0 -45.1875,-24.97656 -45.1875,-55.671875 0,-30.707031 20.26953,-55.691406 45.1875,-55.691406 z m 0,0"
           style="fill:#ff69b4;fill-opacity:1"
           inkscape:connector-curvature="0" />
        <path
           id="path893"
           d="m 329.49609,192.4375 h 0.004 c 6.37891,2.11719 12.88672,3.12891 19.36719,3.12891 30.24218,0 59.71484,-22.01172 70.96093,-55.83985 6.47657,-19.47265 6.05079,-40.062498 -1.19921,-57.972654 -7.58594,-18.746094 -21.64454,-32.355468 -39.58985,-38.324218 -17.94531,-5.960938 -37.36328,-3.476563 -54.66406,7 -16.52734,10.011718 -29.19141,26.246093 -35.65625,45.71875 -13.65234,41.078122 4.64062,84.273432 40.77734,96.289062 z m -12.29687,-86.82422 c 4.22265,-12.714842 12.29297,-23.191405 22.72656,-29.511718 9.65234,-5.847656 20.18359,-7.335937 29.64844,-4.191406 9.46094,3.148438 17,10.640625 21.23437,21.101563 4.57422,11.304691 4.76953,24.531251 0.53907,37.246091 -8.4336,25.375 -31.9336,40.49219 -52.38282,33.69922 -20.43359,-6.79687 -30.19922,-32.96875 -21.76562,-58.34375 z m 0,0"
           style="fill:#ff69b4;fill-opacity:1"
           inkscape:connector-curvature="0" />
        <path
           id="path895"
           d="m 487.875,182.4375 -0.0117,-0.0117 c -28.59766,-21.125 -71.36719,-11.96875 -95.34766,20.42188 -23.95703,32.40625 -20.21093,75.97265 8.34375,97.11328 10.41407,7.71484 22.71875,11.40234 35.3125,11.40234 21.94922,0 44.78516,-11.20312 60.04688,-31.80469 23.95703,-32.40625 20.21484,-75.97265 -8.34375,-97.12109 z m -15.77734,79.26562 c -14.16016,19.11329 -38.10157,25.45313 -53.37891,14.13672 -15.26563,-11.30078 -16.19531,-36.04297 -2.07422,-55.14453 9.38672,-12.67969 23.09766,-19.73437 35.73438,-19.73437 6.39062,0 12.50781,1.80468 17.64843,5.60547 15.25391,11.3125 16.17969,36.04687 2.07032,55.13671 z m 0,0"
           style="fill:#ff69b4;fill-opacity:1"
           inkscape:connector-curvature="0" />
      </g>
    </g>
  </g>
</svg>
