<?xml version="1.0" encoding="UTF-8" standalone="no"?>
<svg
   xmlns:dc="http://purl.org/dc/elements/1.1/"
   xmlns:cc="http://creativecommons.org/ns#"
   xmlns:rdf="http://www.w3.org/1999/02/22-rdf-syntax-ns#"
   xmlns:svg="http://www.w3.org/2000/svg"
   xmlns="http://www.w3.org/2000/svg"
   xmlns:sodipodi="http://sodipodi.sourceforge.net/DTD/sodipodi-0.dtd"
   xmlns:inkscape="http://www.inkscape.org/namespaces/inkscape"
   viewBox="0 -32 650.00001 650"
   version="1.1"
   id="svg897"
   sodipodi:docname="freetrade.svg"
   width="650"
   height="650"
   inkscape:version="0.92.2 5c3e80d, 2017-08-06">
  <metadata
     id="metadata903">
    <rdf:RDF>
      <cc:Work
         rdf:about="">
        <dc:format>image/svg+xml</dc:format>
        <dc:type
           rdf:resource="http://purl.org/dc/dcmitype/StillImage" />
        <dc:title />
      </cc:Work>
    </rdf:RDF>
  </metadata>
  <defs
     id="defs901" />
  <sodipodi:namedview
     pagecolor="#ffffff"
     bordercolor="#666666"
     borderopacity="1"
     objecttolerance="10"
     gridtolerance="10"
     guidetolerance="10"
     inkscape:pageopacity="0"
     inkscape:pageshadow="2"
     inkscape:window-width="1440"
     inkscape:window-height="855"
     id="namedview899"
     showgrid="false"
     inkscape:snap-page="true"
     inkscape:snap-grids="true"
     showguides="true"
     inkscape:guide-bbox="true"
     inkscape:zoom="0.49384615"
     inkscape:cx="325"
     inkscape:cy="325"
     inkscape:window-x="0"
     inkscape:window-y="1"
     inkscape:window-maximized="1"
     inkscape:current-layer="layer3">
    <inkscape:grid
       type="xygrid"
       id="grid4696" />
  </sodipodi:namedview>
  <g
     inkscape:groupmode="layer"
     id="layer4"
     inkscape:label="background"
     sodipodi:insensitive="true">
    <rect
       style="opacity:1;fill:#a6c0e8;fill-opacity:1;stroke:none;stroke-width:1.40216589;stroke-miterlimit:4;stroke-dasharray:none;stroke-opacity:1"
       id="rect4698"
       width="650"
       height="650"
       x="0"
       y="-32" />
  </g>
  <g
     inkscape:groupmode="layer"
     id="layer3"
     inkscape:label="circle">
    <circle
       style="opacity:1;fill:#f6f1f1;fill-opacity:1;stroke:none;stroke-width:1.40199995;stroke-miterlimit:4;stroke-dasharray:none;stroke-opacity:1"
       id="path4691"
       cx="324.08725"
       cy="291.98755"
       r="255.14018" />
  </g>
  <g
     inkscape:groupmode="layer"
     id="layer6"
     inkscape:label="trade"
     sodipodi:insensitive="true">
    <g
       id="g5954"
       transform="translate(128.91278,100.16262)"
       style="fill:#60c659;fill-opacity:1">
      <g
         id="g6542"
         style="fill:#60c659;fill-opacity:1">
        <path
           inkscape:connector-curvature="0"
           id="path5948"
           d="m 193.7,142.95 c 0.4,2.8 2.4,4.8 4.8,5.6 l 68.4,16.8 c 0.4,0 1.2,0 1.6,0 2,0 4.4,-1.2 5.6,-3.2 l 36.8,-59.2 c 1.6,-2.4 1.2,-5.6 -0.4,-7.6 -2,-2 -4.8,-2.8 -7.2,-2 l -10.8,4.4 -33.2,-74 c -1.2,-2.4 -3.2,-4 -6,-4 H 144.5 c -2,0 -3.6,0.8 -4.8,2.4 l -61.2,74.4 c -1.2,1.2 -1.6,3.2 -1.6,4.8 0.4,1.6 1.2,3.2 2.4,4.4 l 61.2,45.6 c 2.8,2 6.8,1.6 9.2,-1.2 l 40.4,-54 19.2,34.4 -12,6 c -2.4,1.2 -4,3.6 -3.6,6.4 z m -50.4,-5.6 -50.8,-37.6 54.8,-66 h 8.8 l 27.2,50.4 z m 53.2,-56 v 0 l -25.6,-48 h 77.6 l 34,75.6 c 1.2,2.8 4,4 6.8,3.6 l -24,38.8 -46.8,-11.2 2.4,-1.2 c 1.6,-0.8 2.8,-2 3.2,-4 0.4,-1.6 0.4,-3.6 -0.4,-5.2 z"
           style="fill:#60c659;fill-opacity:1" />
        <path
           inkscape:connector-curvature="0"
           id="path5950"
           d="m 65.3,347.75 c 1.2,2 3.2,2.8 5.6,2.8 h 95.2 c 3.6,0 6.4,-2.8 6.4,-6.4 v -73.2 c 0,-3.6 -2.8,-6.4 -6,-6.4 l -67.2,-3.2 17.6,-35.2 12,6.8 c 2.4,1.2 5.2,1.2 7.2,-0.8 2,-1.6 2.8,-4.8 2,-7.2 l -24.4,-66 c -0.8,-2.8 -3.2,-4.4 -6.4,-4.4 l -69.6,2.8 c -2.8,0 -5.2,2 -6,4.8 -0.8,2.8 0.4,5.6 2.4,7.2 l 9.6,6.4 -42.8,69.2 c -1.2,2 -1.2,4.8 0,7.2 l 46.4,68.8 z m 94,-70.4 v 60.8 H 74.1 l -8.4,-12.8 26.8,-50.8 z m -101.6,-100 c 1.6,-2.4 1.2,-5.6 -0.8,-7.6 l 45.6,-1.6 16.8,45.2 -2.4,-1.2 c -1.6,-0.8 -3.2,-1.2 -5.2,-0.4 -1.6,0.4 -3.2,1.6 -4,3.2 l -25.2,50 v 0 l -25.2,48 -43.2,-64.8 z"
           style="fill:#60c659;fill-opacity:1" />
        <path
           inkscape:connector-curvature="0"
           id="path5952"
           d="m 345.7,156.55 c -0.8,-1.6 -2,-2.8 -4,-3.2 -1.6,-0.4 -3.6,-0.4 -5.2,0.4 l -66.8,37.2 c -3.2,1.6 -4.4,5.6 -2.4,8.8 l 32.8,58.8 -39.2,3.6 -0.4,-13.6 c 0,-2.8 -2,-5.2 -4.4,-6 -2.4,-0.8 -5.6,0 -7.2,2 l -43.2,56 c -1.6,2.4 -2,5.2 -0.4,7.6 l 38.8,57.6 c 1.2,2 3.2,2.8 5.2,2.8 0.4,0 1.2,0 1.6,-0.4 2.8,-0.8 4.4,-3.2 4.8,-6 l 0.4,-11.6 h 81.2 c 2.4,0 4.8,-1.6 6,-4 l 44.4,-98.8 c 0.8,-1.6 0.8,-3.6 0,-5.6 z m -64,42.8 55.2,-30.8 37.6,77.2 -3.6,8 -56.8,4 z m 51.6,138.4 h -83.2 c -2.8,0 -5.2,2 -6,4.4 l -25.2,-37.6 29.6,-38 v 2.8 c 0,1.6 0.8,3.6 2,4.4 1.2,1.2 3.2,1.6 4.8,1.6 l 56,-4.8 v 0 l 54,-3.6 z"
           style="fill:#60c659;fill-opacity:1" />
      </g>
    </g>
  </g>
  <g
     id="g5946"
     transform="translate(110.8,175.6)" />
</svg>
