<?xml version="1.0" encoding="UTF-8"?>
<!DOCTYPE svg  PUBLIC '-//W3C//DTD SVG 1.1 Tiny//EN'  'http://www.w3.org/Graphics/SVG/1.1/DTD/svg11-tiny.dtd'>
<svg baseProfile="tiny" version="1.1" viewBox="0 0 250 250" xml:space="preserve" xmlns="http://www.w3.org/2000/svg">
	<polygon points="251 251 1 251 0 0 250 0" fill="#FFD189"/>
	<rect x="40" y="40" width="170" height="170" fill="#E8B302" stroke="#000" stroke-miterlimit="10" stroke-width="7"/>
	<g fill="#211A1E">
		<path d="m110.14 180.76l-0.69 4.327h3.48v3.199h-4.014l-0.815 5.017h-3.606l0.815-5.017h-4.077l-0.784 5.017h-3.638l0.784-5.017h-3.261v-3.199h3.794l0.69-4.327h-3.134v-3.198h3.669l0.784-4.954h3.638l-0.784 4.954h4.045l0.784-4.954h3.637l-0.784 4.954h3.606v3.198h-4.139zm-3.606 0h-4.077l-0.689 4.327h4.045l0.721-4.327z"/>
		<path d="m132.65 185.34c0 2.612-0.758 4.646-2.272 6.099-1.516 1.453-3.664 2.18-6.444 2.18-2.593 0-4.552-0.585-5.88-1.756s-1.991-2.769-1.991-4.798c0-0.606 0.063-1.254 0.188-1.944l5.331-0.94c-0.105 0.794-0.157 1.442-0.157 1.943 0 1.15 0.225 1.981 0.674 2.494 0.45 0.512 1.145 0.768 2.085 0.768 1.108 0 1.897-0.365 2.368-1.098 0.471-0.731 0.705-1.902 0.705-3.512v-12.167h5.394v12.731z"/>
		<path d="m150.01 173.17c1.389 0.586 2.68 1.538 3.872 2.854l-3.042 3.513c-0.689-1.045-1.5-1.813-2.43-2.305-0.932-0.491-2.043-0.736-3.34-0.736-1.087 0-1.923 0.188-2.509 0.564-0.585 0.375-0.878 0.878-0.878 1.505 0 0.522 0.309 0.946 0.926 1.27 0.615 0.324 1.666 0.622 3.151 0.894 2.862 0.523 4.907 1.286 6.131 2.289 1.222 1.004 1.833 2.415 1.833 4.233 0 1.317-0.375 2.456-1.129 3.417-0.752 0.962-1.792 1.693-3.119 2.195-1.328 0.502-2.828 0.752-4.5 0.752-2.342 0-4.244-0.287-5.707-0.861-1.463-0.575-2.728-1.459-3.795-2.651l2.76-3.763c0.816 1.13 1.735 1.924 2.761 2.384 1.022 0.459 2.257 0.689 3.7 0.689 1.148 0 2.011-0.161 2.586-0.486 0.576-0.323 0.863-0.788 0.863-1.395 0-0.48-0.309-0.873-0.926-1.176-0.616-0.304-1.646-0.591-3.089-0.863-1.777-0.355-3.246-0.777-4.405-1.27-1.16-0.49-2.061-1.155-2.697-1.991-0.637-0.835-0.956-1.902-0.956-3.198 0-1.297 0.35-2.456 1.05-3.48 0.699-1.024 1.725-1.824 3.073-2.399s2.942-0.862 4.782-0.862c1.965-1e-3 3.643 0.292 5.034 0.877z"/>
		<path d="m169.53 172.93c1.217 0.522 2.142 1.224 2.774 2.104 0.633 0.882 0.949 1.856 0.949 2.923 0 1.144-0.224 2.067-0.67 2.775-0.447 0.707-0.987 1.216-1.62 1.525-0.633 0.312-1.26 0.479-1.88 0.504v0.074c0.67-0.025 1.358 0.112 2.065 0.41 0.709 0.297 1.31 0.78 1.808 1.452 0.496 0.67 0.745 1.538 0.745 2.606 0 1.241-0.373 2.34-1.117 3.295-0.746 0.956-1.77 1.694-3.072 2.216-1.304 0.521-2.773 0.782-4.412 0.782-2.533 0-4.557-0.41-6.069-1.229-1.515-0.819-2.595-2.16-3.239-4.022l5.658-2.197c0.125 1.02 0.441 1.758 0.95 2.217s1.31 0.689 2.401 0.689c0.895 0 1.602-0.211 2.123-0.634 0.521-0.422 0.781-0.992 0.781-1.713 0-0.72-0.229-1.234-0.689-1.545-0.459-0.311-1.186-0.466-2.178-0.466h-1.602v-3.574h1.192c1.886 0 2.83-0.782 2.83-2.347 0-0.645-0.218-1.154-0.652-1.527-0.435-0.371-1.062-0.558-1.88-0.558-0.869 0-1.553 0.224-2.049 0.67-0.498 0.447-0.77 1.068-0.818 1.862l-5.438-1.638c0.273-1.738 1.217-3.079 2.83-4.022 1.613-0.942 3.575-1.415 5.883-1.415 1.715 1e-3 3.179 0.262 4.396 0.783z"/>
		<path d="m193.53 174.89c1.651 1.85 2.477 4.513 2.477 7.988s-0.825 6.138-2.477 7.987c-1.65 1.85-4.028 2.774-7.13 2.774-3.104 0-5.481-0.925-7.131-2.774-1.651-1.849-2.477-4.512-2.477-7.987s0.825-6.139 2.477-7.988c1.649-1.849 4.026-2.774 7.131-2.774 3.102-1e-3 5.48 0.925 7.13 2.774zm-9.719 3.427c-0.533 0.906-0.801 2.427-0.801 4.562s0.267 3.655 0.801 4.561c0.533 0.907 1.397 1.358 2.589 1.358 1.19 0 2.053-0.451 2.588-1.358 0.533-0.906 0.801-2.426 0.801-4.561 0-2.136-0.268-3.655-0.801-4.562-0.535-0.906-1.397-1.359-2.588-1.359-1.191-1e-3 -2.054 0.452-2.589 1.359z"/>
	</g>
</svg>
