<?xml version="1.0" encoding="UTF-8" standalone="no"?>
<svg
   xmlns:dc="http://purl.org/dc/elements/1.1/"
   xmlns:cc="http://creativecommons.org/ns#"
   xmlns:rdf="http://www.w3.org/1999/02/22-rdf-syntax-ns#"
   xmlns:svg="http://www.w3.org/2000/svg"
   xmlns="http://www.w3.org/2000/svg"
   xmlns:sodipodi="http://sodipodi.sourceforge.net/DTD/sodipodi-0.dtd"
   xmlns:inkscape="http://www.inkscape.org/namespaces/inkscape"
   version="1.1"
   id="Layer_1"
   x="0px"
   y="0px"
   viewBox="0 0 650 650"
   xml:space="preserve"
   sodipodi:docname="open-space.svg"
   width="650"
   height="650"
   inkscape:version="0.92.2 5c3e80d, 2017-08-06"><metadata
     id="metadata64"><rdf:RDF><cc:Work
         rdf:about=""><dc:format>image/svg+xml</dc:format><dc:type
           rdf:resource="http://purl.org/dc/dcmitype/StillImage" /><dc:title></dc:title></cc:Work></rdf:RDF></metadata><defs
     id="defs62" /><sodipodi:namedview
     pagecolor="#ffffff"
     bordercolor="#666666"
     borderopacity="1"
     objecttolerance="10"
     gridtolerance="10"
     guidetolerance="10"
     inkscape:pageopacity="0"
     inkscape:pageshadow="2"
     inkscape:window-width="1440"
     inkscape:window-height="855"
     id="namedview60"
     showgrid="true"
     showguides="true"
     inkscape:snap-perpendicular="true"
     inkscape:snap-tangential="true"
     inkscape:zoom="0.4609375"
     inkscape:cx="313.75312"
     inkscape:cy="235.20505"
     inkscape:window-x="0"
     inkscape:window-y="1"
     inkscape:window-maximized="1"
     inkscape:current-layer="Layer_1"><inkscape:grid
       type="xygrid"
       id="grid120" /></sodipodi:namedview><radialGradient
     id="SVGID_1_"
     cx="256"
     cy="258"
     r="256"
     gradientTransform="matrix(1,0,0,-1,0,652)"
     gradientUnits="userSpaceOnUse"><stop
       offset="0.0051"
       style="stop-color:#33495F"
       id="stop2" /><stop
       offset="1"
       style="stop-color:#2B3E51"
       id="stop4" /></radialGradient><rect
     id="rect3811"
     width="660"
     height="660"
     x="0"
     y="-10"
     style="fill:#403c58;fill-opacity:0.98571426" /><g
     id="g118"
     transform="translate(74.80656,-73.068124)"><path
       inkscape:connector-curvature="0"
       id="path7"
       d="M 512,394 C 512,535.385 397.385,650 256,650 185.705,650 122.027,621.667 75.763,575.797 28.977,529.41 0,465.09 0,394 0,252.615 114.615,138 256,138 c 141.385,0 256,114.615 256,256 z"
       style="fill:url(#SVGID_1_)" /><path
       inkscape:connector-curvature="0"
       id="path9"
       d="m 381.078,564.269 c -2.325,-0.286 -4.688,-0.451 -7.09,-0.451 -5.161,0 -10.157,0.69 -14.915,1.967 -4.302,-18.914 -17.811,-34.315 -35.573,-41.251 0.071,-0.82 0.115,-1.648 0.115,-2.488 0,-15.652 -12.69,-28.344 -28.345,-28.344 -0.575,0 -1.144,0.022 -1.708,0.056 C 289.874,475.637 273.85,462 254.64,462 c -17.72,0 -32.726,11.607 -37.84,27.632 -10.73,1.948 -18.95,11.02 -19.612,22.145 -23.444,1.68 -43.144,16.837 -51.402,37.775 -10.41,3.072 -19.661,8.831 -26.963,16.475 -10.261,-4.302 -21.527,-6.685 -33.352,-6.685 -7.745,0 -15.248,1.029 -22.387,2.945 4.064,4.654 8.294,9.161 12.68,13.51 C 122.027,621.667 185.705,650 256,650 c 80.438,0 152.197,-37.11 199.129,-95.131 -8.613,-8.308 -20.316,-13.43 -33.229,-13.43 -17.264,0 -32.389,9.134 -40.822,22.83 z"
       style="opacity:0.5;fill:#ecf0f1;enable-background:new" /><path
       inkscape:connector-curvature="0"
       id="path11"
       d="M 293.221,512.112 C 293.221,555.333 256,610 256,610 c 0,0 -37.221,-50.667 -37.221,-97.888 0,-20.557 16.664,-37.221 37.221,-37.221 20.557,0 37.221,16.665 37.221,37.221 z"
       style="fill:#e87e04" /><path
       inkscape:connector-curvature="0"
       id="path13"
       d="m 280.721,499.611 c 0,28.705 -24.721,65.014 -24.721,65.014 0,0 -24.72,-33.65 -24.72,-65.014 0,-13.653 11.067,-24.72 24.72,-24.72 13.653,10e-4 24.721,11.067 24.721,24.72 z"
       style="fill:#f59d00" /><path
       inkscape:connector-curvature="0"
       id="path15"
       d="m 271.887,493.945 c 0,17.48 -15.054,39.591 -15.054,39.591 0,0 -15.054,-20.492 -15.054,-39.591 0,-8.314 6.74,-15.054 15.054,-15.054 8.314,10e-4 15.054,6.74 15.054,15.054 z"
       style="fill:#f2c500" /><g
       transform="translate(0,138)"
       id="g41"
       y="0"
       x="0"><path
         inkscape:connector-curvature="0"
         id="path17"
         d="M 321.688,96.85 C 320.244,93.807 257,115.9 257,115.9 c 0,0 -63.244,-22.094 -64.687,-19.051 0.083,0.058 0.171,0.116 0.255,0.174 -54.327,114.711 18.622,242.512 18.622,242.512 0,0 2.185,4.465 7.589,4.465 5.875,0 38.221,0 38.221,0 0,0 32.8,0 38.676,0 5.404,0 7.476,-4.465 7.476,-4.465 0,0 72.887,-127.888 18.455,-242.63 0.025,-0.018 0.054,-0.037 0.081,-0.055 z"
         style="fill:#ecf0f1" /><path
         inkscape:connector-curvature="0"
         id="path19"
         d="m 321.605,96.904 c 54.434,114.742 -18.454,242.631 -18.454,242.631 0,0 -2.071,4.465 -7.475,4.465 C 289.8,344 257,344 257,344 V 115.9 c 33,-2.136 53.462,-11.23 64.605,-18.996 z"
         style="fill:#bdc3c7" /><path
         inkscape:connector-curvature="0"
         id="path21"
         d="m 257,19.118 c -24,0 -51.583,50.105 -64.687,77.731 C 203.457,104.615 224,113.764 257,115.9 290,113.763 310.543,104.615 321.688,96.849 308.583,69.224 281,19.118 257,19.118 Z"
         style="fill:#e94b35" /><path
         inkscape:connector-curvature="0"
         id="path23"
         d="M 257,19.118 V 115.9 c 33,-2.137 53.543,-11.285 64.688,-19.051 C 308.583,69.224 281,19.118 257,19.118 Z"
         style="fill:#c23824" /><path
         inkscape:connector-curvature="0"
         id="path25"
         d="m 192.639,253.07 26.213,73.479 c 0.924,2.59 -0.569,4.658 -3.318,4.597 0,0 -48.944,-5.138 -48.986,40.823 0,0 0.202,4.03 -3.423,4.03 -3.625,0 -18.856,0 -18.856,0 -2.75,0 -5.901,-2.062 -7.002,-4.582 0,0.001 -40.8,-93.36 55.372,-118.347 z"
         style="fill:#e87e04" /><path
         inkscape:connector-curvature="0"
         id="path27"
         d="m 321.361,253.07 -26.213,73.479 c -0.924,2.59 0.569,4.658 3.318,4.597 0,0 48.944,-5.138 48.986,40.823 0,0 -0.202,4.03 3.423,4.03 3.625,0 18.856,0 18.856,0 2.75,0 5.901,-2.062 7.002,-4.582 0,0.001 40.8,-93.36 -55.372,-118.347 z"
         style="fill:#d55400" /><circle
         id="circle29"
         r="47.157001"
         cy="182.34399"
         cx="256.73999"
         style="fill:#e94b35" /><path
         inkscape:connector-curvature="0"
         id="path31"
         d="m 256.741,220.327 c -20.944,0 -37.983,-17.04 -37.983,-37.983 0,-20.944 17.039,-37.983 37.983,-37.983 20.944,0 37.982,17.039 37.982,37.983 10e-4,20.943 -17.038,37.983 -37.982,37.983 z"
         style="fill:#2b3e51" /><path
         inkscape:connector-curvature="0"
         id="path33"
         d="m 255.687,220.301 39.01,-39.01 c -0.263,-9.582 -4.085,-18.285 -10.197,-24.835 l -53.646,53.646 c 6.549,6.113 15.252,9.936 24.833,10.199 z"
         style="fill:#33495f" /><path
         inkscape:connector-curvature="0"
         id="path35"
         d="m 222.164,198.033 50.268,-50.267 c -3.47,-1.581 -7.217,-2.653 -11.147,-3.125 l -42.245,42.245 c 0.47,3.931 1.543,7.676 3.124,11.147 z"
         style="fill:#33495f" /><path
         inkscape:connector-curvature="0"
         id="path37"
         d="m 254,253 c -2.761,0 -5,2.238 -5,5 v 113 c 0,2.762 2.239,5 5,5 h 3 V 253 Z"
         style="fill:#e87e04" /><path
         inkscape:connector-curvature="0"
         id="path39"
         d="m 259,253 h -2 v 123 h 2 c 2.761,0 5,-2.238 5,-5 V 258 c 0,-2.762 -2.239,-5 -5,-5 z"
         style="fill:#d55400" /></g><g
       transform="translate(0,138)"
       id="g45"
       style="opacity:0.5"><path
         inkscape:connector-curvature="0"
         id="path43"
         d="m 67.396,227.119 c 1.946,-1.943 3.832,-1.303 4.191,1.424 l 0.463,3.513 c 0.359,2.727 2.658,5.979 5.107,7.229 l 3.157,1.61 c 2.449,1.25 2.423,3.241 -0.059,4.426 l -3.199,1.525 c -2.482,1.185 -4.866,4.376 -5.297,7.091 l -0.556,3.5 c -0.432,2.715 -2.333,3.306 -4.227,1.311 l -2.439,-2.57 c -1.894,-1.994 -5.665,-3.275 -8.381,-2.846 l -3.5,0.553 c -2.716,0.429 -3.866,-1.198 -2.554,-3.615 l 1.691,-3.114 c 1.312,-2.417 1.365,-6.399 0.118,-8.851 l -1.607,-3.159 c -1.247,-2.45 -0.055,-4.046 2.649,-3.545 l 3.484,0.646 c 2.704,0.501 6.508,-0.679 8.454,-2.622 z"
         style="fill:#ecf0f1" /></g><g
       transform="translate(0,138)"
       id="g49"><path
         inkscape:connector-curvature="0"
         id="path47"
         d="m 106.979,100.077 c 0.356,-2.728 2.241,-3.37 4.189,-1.429 l 3.188,3.178 c 1.948,1.941 5.753,3.118 8.457,2.614 l 4.425,-0.825 c 2.704,-0.504 3.897,1.09 2.653,3.543 l -2.037,4.014 c -1.245,2.453 -1.187,6.436 0.127,8.851 l 2.152,3.954 c 1.314,2.416 0.167,4.043 -2.549,3.617 l -4.448,-0.696 c -2.717,-0.426 -6.487,0.859 -8.377,2.856 l -3.096,3.268 c -1.891,1.997 -3.793,1.409 -4.228,-1.307 l -0.712,-4.444 c -0.435,-2.716 -2.822,-5.904 -5.305,-7.085 l -4.065,-1.934 c -2.483,-1.182 -2.512,-3.173 -0.064,-4.426 l 4.008,-2.051 c 2.448,-1.253 4.743,-4.508 5.099,-7.235 z"
         style="fill:#ecf0f1" /></g><g
       transform="translate(0,138)"
       id="g53"><path
         inkscape:connector-curvature="0"
         id="path51"
         d="m 446.601,267.611 c 0.613,-2.681 2.55,-3.142 4.305,-1.024 l 6.333,7.64 c 1.755,2.117 5.432,3.648 8.171,3.403 l 9.883,-0.887 c 2.739,-0.245 3.776,1.454 2.305,3.778 l -5.308,8.381 c -1.472,2.324 -1.792,6.294 -0.711,8.823 l 3.896,9.125 c 1.08,2.529 -0.216,4.041 -2.88,3.36 l -9.613,-2.458 c -2.665,-0.681 -6.539,0.241 -8.611,2.05 l -7.474,6.525 c -2.072,1.809 -3.91,1.043 -4.085,-1.701 l -0.633,-9.902 c -0.175,-2.745 -2.25,-6.145 -4.61,-7.556 l -8.516,-5.092 c -2.36,-1.411 -2.2,-3.396 0.355,-4.411 l 9.223,-3.662 c 2.556,-1.015 5.148,-4.038 5.761,-6.719 z"
         style="fill:#ecf0f1" /></g><g
       transform="translate(0,138)"
       id="g57"
       style="opacity:0.5"><path
         inkscape:connector-curvature="0"
         id="path55"
         d="m 402.874,128.743 c 1.86,-2.024 3.771,-1.466 4.247,1.243 l 0.646,3.685 c 0.476,2.708 2.91,5.86 5.411,7.005 l 3.402,1.556 c 2.501,1.145 2.56,3.135 0.13,4.424 l -3.304,1.754 c -2.429,1.289 -4.674,4.579 -4.989,7.311 l -0.429,3.716 c -0.315,2.731 -2.19,3.402 -4.167,1.49 l -2.688,-2.6 c -1.977,-1.912 -5.8,-3.031 -8.495,-2.486 l -3.666,0.74 c -2.695,0.545 -3.913,-1.031 -2.706,-3.502 l 1.642,-3.36 c 1.208,-2.471 1.09,-6.452 -0.261,-8.848 l -1.837,-3.258 c -1.351,-2.396 -0.228,-4.04 2.495,-3.655 l 3.704,0.523 c 2.723,0.385 6.473,-0.957 8.334,-2.982 z"
         style="fill:#ecf0f1" /></g></g></svg>